<svg width="24" height="24" viewBox="0 0 24 24" fill="none" xmlns="http://www.w3.org/2000/svg">
<g id="Form Elements/Checkbox&#38;Radio">
<mask id="mask0_6_1186" style="mask-type:alpha" maskUnits="userSpaceOnUse" x="0" y="0" width="24" height="24">
<rect id="Bounding box" width="24" height="24" fill="#D9D9D9"/>
</mask>
<g mask="url(#mask0_6_1186)">
<path id="check_box" d="M11.1778 15.4667L17.8361 8.80833L16.5139 7.48611L11.1778 12.8222L8.48611 10.1306L7.16389 11.4528L11.1778 15.4667ZM5.88889 20C5.36944 20 4.92477 19.815 4.55486 19.4451C4.18495 19.0752 4 18.6306 4 18.1111V4.88889C4 4.36944 4.18495 3.92477 4.55486 3.55486C4.92477 3.18495 5.36944 3 5.88889 3H19.1111C19.6306 3 20.0752 3.18495 20.4451 3.55486C20.815 3.92477 21 4.36944 21 4.88889V18.1111C21 18.6306 20.815 19.0752 20.4451 19.4451C20.0752 19.815 19.6306 20 19.1111 20H5.88889ZM5.88889 18.1111H19.1111V4.88889H5.88889V18.1111Z" fill="#05141F"/>
</g>
</g>
</svg>
