<svg width="24" height="24" viewBox="0 0 24 24" fill="none" xmlns="http://www.w3.org/2000/svg">
<mask id="mask0_1681_22235" style="mask-type:alpha" maskUnits="userSpaceOnUse" x="0" y="0" width="24" height="24">
<rect width="24" height="24" fill="#D9D9D9"/>
</mask>
<g mask="url(#mask0_1681_22235)">
<path d="M5.88889 20C5.36944 20 4.92477 19.815 4.55486 19.4451C4.18495 19.0752 4 18.6306 4 18.1111V4.88889C4 4.36944 4.18495 3.92477 4.55486 3.55486C4.92477 3.18495 5.36944 3 5.88889 3H19.1111C19.6306 3 20.0752 3.18495 20.4451 3.55486C20.815 3.92477 21 4.36944 21 4.88889V18.1111C21 18.6306 20.815 19.0752 20.4451 19.4451C20.0752 19.815 19.6306 20 19.1111 20H5.88889ZM5.88889 18.1111H19.1111V4.88889H5.88889V18.1111Z" fill="#05141F"/>
</g>
</svg>
