<svg width="20" height="20" viewBox="0 0 20 20" fill="none" xmlns="http://www.w3.org/2000/svg">
<mask id="mask0_547_22466" style="mask-type:alpha" maskUnits="userSpaceOnUse" x="0" y="0" width="20" height="20">
<rect width="20" height="20" fill="#D9D9D9"/>
</mask>
<g mask="url(#mask0_547_22466)">
</g>
<path d="M15.5751 5.8917H13.3417V2.50836H11.8417V5.8917H8.1834V2.50836H6.6834V5.8917H4.5584C4.3084 5.8917 4.1084 6.0917 4.1084 6.3417V9.00003C4.1084 11.075 5.55006 12.8084 7.4834 13.275V17.2C7.4834 17.4334 7.66673 17.6167 7.90006 17.6167H12.1084C12.3417 17.6167 12.5251 17.4334 12.5251 17.2V13.3167C14.5251 12.9 16.0334 11.125 16.0334 9.00003V6.3417C16.0334 6.0917 15.8334 5.8917 15.5834 5.8917H15.5751ZM11.0167 16.1167H8.97507V13.4167H11.0167V16.1167ZM14.5251 9.00836C14.5251 10.2917 13.6751 11.375 12.5167 11.7584C12.2334 11.85 11.9334 11.9167 11.6167 11.9167H8.51673C8.15007 11.9167 7.80006 11.8417 7.4834 11.7167C6.39173 11.3 5.6084 10.2417 5.6084 9.00836V7.40003H14.5251V9.00836Z" fill="white"/>
</svg>
