<?xml version="1.0" encoding="utf-8"?>
<!-- Generator: Adobe Illustrator 28.0.0, SVG Export Plug-In . SVG Version: 6.00 Build 0)  -->
<svg version="1.1" id="a" xmlns="http://www.w3.org/2000/svg" xmlns:xlink="http://www.w3.org/1999/xlink" x="0px" y="0px"
	 width="24px" height="24px" viewBox="0 0 24 24" style="enable-background:new 0 0 24 24;" xml:space="preserve">
<style type="text/css">
	.st0{fill:#FFFFFF;}
</style>
<path class="st0" d="M6.6,14.4v-1.8h1.8v1.8H6.6z M6.6,18v-1.8h1.8V18H6.6z M10.2,14.4v-1.8H12v1.8H10.2z M10.2,18v-1.8H12V18H10.2z
	 M13.8,9V7.2h1.8V9H13.8z M3,20.5V9.4c0-0.3,0.2-0.5,0.5-0.5h6.7V4c0-0.3,0.2-0.5,0.5-0.5h9.8C20.8,3.5,21,3.7,21,4v16.5h-1.8V5.3
	H12v5.4H4.8v9.8C4.8,20.5,3,20.5,3,20.5z"/>
</svg>
