<svg width="48" height="48" viewBox="0 0 48 48" fill="none" xmlns="http://www.w3.org/2000/svg">
<g id="20">
<path id="Vector" d="M25.7999 28.5H22.2V32.1H25.7999V28.5Z" fill="#05141F"/>
<path id="Vector_2" d="M22.42 26.6984H25.58L25.7999 15.8984H22.2L22.42 26.6984Z" fill="#05141F"/>
<path id="Vector_3" d="M24 6C14.06 6 6 14.06 6 24C6 33.94 14.06 42 24 42C33.94 42 42 33.94 42 24C42 14.06 33.94 6 24 6ZM24 38.4C16.04 38.4 9.6 31.96 9.6 24C9.6 16.04 16.04 9.6 24 9.6C31.96 9.6 38.4 16.04 38.4 24C38.4 31.96 31.96 38.4 24 38.4Z" fill="#05141F"/>
</g>
</svg>
