<svg width="14" height="14" viewBox="0 0 14 14" fill="none" xmlns="http://www.w3.org/2000/svg">
<g id="24">
<path id="Vector" d="M7.4431 8.84375H6.50977V9.77708H7.4431V8.84375Z" fill="#05141F"/>
<path id="Vector_2" d="M8.20727 4.71909C7.87477 4.47409 7.48394 4.35742 7.02894 4.35742C6.57394 4.35742 6.19477 4.47992 5.90894 4.71909C5.62311 4.96409 5.41894 5.24992 5.30811 5.59409L6.10727 5.90909C6.14811 5.76326 6.24144 5.60576 6.38144 5.43659C6.52144 5.26742 6.73727 5.17992 7.02894 5.17992C7.28561 5.17992 7.48394 5.24992 7.61227 5.38992C7.74061 5.52992 7.80477 5.68742 7.80477 5.85659C7.80477 6.02576 7.75811 6.17159 7.65894 6.31159C7.55977 6.45159 7.4431 6.58576 7.29727 6.70826C6.94144 7.02326 6.72561 7.26242 6.64394 7.42576C6.56227 7.58909 6.52144 7.88076 6.52144 8.31242H7.41977C7.41977 8.04409 7.44894 7.83409 7.5131 7.68242C7.57144 7.53076 7.74644 7.32076 8.02644 7.05242C8.23644 6.84242 8.39977 6.64409 8.52227 6.45159C8.64477 6.25909 8.7031 6.03159 8.7031 5.76909C8.7031 5.31409 8.53977 4.96992 8.20727 4.72492V4.71909Z" fill="#05141F"/>
<path id="Vector_3" d="M7 1.75C4.10083 1.75 1.75 4.10083 1.75 7C1.75 9.89917 4.10083 12.25 7 12.25C9.89917 12.25 12.25 9.89917 12.25 7C12.25 4.10083 9.89917 1.75 7 1.75ZM7 11.2C4.67833 11.2 2.8 9.32167 2.8 7C2.8 4.67833 4.67833 2.8 7 2.8C9.32167 2.8 11.2 4.67833 11.2 7C11.2 9.32167 9.32167 11.2 7 11.2Z" fill="#05141F"/>
</g>
</svg>
