<svg width="24" height="24" viewBox="0 0 24 24" fill="none" xmlns="http://www.w3.org/2000/svg">
<path d="M13.1598 12L16.4498 8.81998L15.1798 7.53998L11.9998 10.73L8.8198 7.53998L7.5498 8.81998L10.8398 12L7.5498 15.18L8.8198 16.45L11.9998 13.27L15.1798 16.45L16.4498 15.18L13.1598 12Z" fill="#05141F"/>
<path d="M21 12C21 7.03 16.97 3 12 3C7.03 3 3 7.03 3 12C3 16.97 7.03 21 12 21C16.97 21 21 16.97 21 12ZM19.2 12C19.2 15.98 15.98 19.2 12 19.2C8.02 19.2 4.8 15.98 4.8 12C4.8 8.02 8.02 4.8 12 4.8C15.98 4.8 19.2 8.02 19.2 12Z" fill="#05141F"/>
</svg>
