<svg width="24" height="24" viewBox="0 0 24 24" fill="none" xmlns="http://www.w3.org/2000/svg">
<path d="M7.54983 3.68001C4.18983 5.62001 3.03983 9.92001 4.97983 13.28L7.84983 18.25C9.78983 21.61 14.0898 22.76 17.4498 20.82L19.5298 19.62C19.7698 19.48 19.8498 19.18 19.7098 18.94L17.2098 14.61L16.5598 13.48C16.4198 13.24 16.1198 13.16 15.8798 13.3L14.7498 13.95L13.6498 14.58C13.3898 14.73 13.0498 14.64 12.8898 14.38L10.8398 10.83C10.6898 10.57 10.7798 10.23 11.0398 10.07L12.1398 9.44001L13.2698 8.79001C13.5098 8.65001 13.5898 8.35001 13.4498 8.11001L12.7998 6.98001L10.2998 2.65001C10.1598 2.41001 9.85983 2.33001 9.61983 2.47001L7.53983 3.67001L7.54983 3.68001ZM10.1498 8.53001C9.01983 9.18001 8.63983 10.62 9.28983 11.74L11.3398 15.29C11.9898 16.42 13.4298 16.8 14.5498 16.15L15.6498 15.52L17.4998 18.72L16.5498 19.27C14.0498 20.71 10.8498 19.85 9.40983 17.36L6.53983 12.39C5.09983 9.89001 5.95983 6.69001 8.44983 5.25001L9.39983 4.70001L11.2498 7.90001L10.1498 8.53001Z" fill="#05141F"/>
</svg>
