<svg width="16" height="16" viewBox="0 0 16 16" fill="none" xmlns="http://www.w3.org/2000/svg">
<g id="30_1 1">
<path id="Vector" d="M5.03322 2.45336C2.79322 3.7467 2.02656 6.61336 3.31989 8.85336L5.23322 12.1667C6.52656 14.4067 9.39322 15.1734 11.6332 13.88L13.0199 13.08C13.1799 12.9867 13.2332 12.7867 13.1399 12.6267L11.4732 9.74003L11.0399 8.98669C10.9466 8.82669 10.7466 8.77336 10.5866 8.86669L9.83322 9.30003L9.09989 9.72003C8.92656 9.82003 8.69989 9.76003 8.59322 9.58669L7.22656 7.22003C7.12656 7.04669 7.18656 6.82003 7.35989 6.71336L8.09322 6.29336L8.84656 5.86003C9.00656 5.7667 9.05989 5.56669 8.96656 5.40669L8.53322 4.65336L6.86656 1.7667C6.77322 1.6067 6.57322 1.55336 6.41322 1.64669L5.02656 2.4467L5.03322 2.45336ZM6.76656 5.68669C6.01322 6.12003 5.75989 7.08003 6.19322 7.82669L7.55989 10.1934C7.99322 10.9467 8.95322 11.2 9.69989 10.7667L10.4332 10.3467L11.6666 12.48L11.0332 12.8467C9.36656 13.8067 7.23322 13.2334 6.27322 11.5734L4.35989 8.26003C3.39989 6.59336 3.97322 4.46003 5.63322 3.50003L6.26656 3.13336L7.49989 5.2667L6.76656 5.68669Z" fill="white"/>
</g>
</svg>
