<svg width="30" height="30" viewBox="0 0 30 30" fill="none" xmlns="http://www.w3.org/2000/svg">
<g id="25">
<path id="Vector" d="M24.2246 8.77539H20.6871C20.3121 5.96289 17.9121 3.77539 14.9996 3.77539C12.0871 3.77539 9.68711 5.96289 9.31211 8.77539H5.77461C5.51211 8.77539 5.28711 8.98789 5.28711 9.26289V25.7754C5.28711 26.0379 5.49961 26.2629 5.77461 26.2629H24.2246C24.4871 26.2629 24.7121 26.0504 24.7121 25.7754V9.25039C24.7121 8.98789 24.4996 8.76289 24.2246 8.76289V8.77539ZM14.9996 5.60039C16.9121 5.60039 18.5121 6.97539 18.8621 8.77539H11.1371C11.4996 6.96289 13.0871 5.60039 14.9996 5.60039ZM22.7746 24.3129H7.23711V10.7129H9.23711V15.0004H11.0621V10.7129H18.9496V15.0004H20.7746V10.7129H22.7746V24.3129Z" fill="white"/>
</g>
</svg>
