<svg width="20" height="20" viewBox="0 0 20 20" fill="none" xmlns="http://www.w3.org/2000/svg">
<mask id="mask0_547_25742" style="mask-type:alpha" maskUnits="userSpaceOnUse" x="0" y="0" width="20" height="20">
<rect width="20" height="20" fill="#D9D9D9"/>
</mask>
<g mask="url(#mask0_547_25742)">
</g>
<path d="M11.0754 5.70831V9.99998H13.2254L8.93374 14.2916V9.99998H6.78374L11.0754 5.70831ZM10.0171 4.64998L5.72541 8.94164L3.73374 10.9333C3.52541 11.1416 3.67541 11.5 3.96708 11.5H7.43374V17.1083C7.43374 17.4083 7.79208 17.55 8.00041 17.3416L9.99207 15.35L14.2837 11.0583L16.2754 9.06664C16.4837 8.85831 16.3337 8.49998 16.0421 8.49998H12.5754V2.89164C12.5754 2.59164 12.2171 2.44998 12.0087 2.65831L10.0171 4.64998Z" fill="#05141F"/>
</svg>
