<svg width="20" height="20" viewBox="0 0 20 20" fill="none" xmlns="http://www.w3.org/2000/svg">
<g id="30">
<path id="Vector" d="M5.51672 11.975V10.475H7.01672V11.975H5.51672ZM5.51672 14.975V13.475H7.01672V14.975H5.51672ZM8.52506 11.975V10.475H10.0251V11.975H8.52506ZM8.52506 14.975V13.475H10.0251V14.975H8.52506ZM11.5001 7.47502V5.97502H13.0001V7.47502H11.5001ZM2.51672 17.0834V7.83335C2.51672 7.60002 2.70006 7.41669 2.93339 7.41669H8.49172V3.33335C8.49172 3.10002 8.67506 2.91669 8.90839 2.91669H17.0667C17.3001 2.91669 17.4834 3.10002 17.4834 3.33335V17.0834H15.9834V4.41669H9.99172V8.91669H4.01672V17.0834H2.51672Z" fill="#05141F"/>
</g>
</svg>
