<svg width="24" height="24" viewBox="0 0 24 24" fill="none" xmlns="http://www.w3.org/2000/svg">
<g id="ico-location 2">
<path id="Vector" d="M15.6642 5.64411C14.5815 4.5614 13.2181 4 11.6541 4C10.0902 4 8.72682 4.5614 7.64412 5.64411C6.5614 6.72682 6 8.09023 6 9.65414C6 10.7368 6.2005 11.6591 6.5614 12.381C6.92231 13.1028 7.36341 13.8246 7.88472 14.5063C8.40602 15.188 8.92732 15.9098 9.48873 16.6316C10.0501 17.3534 10.4912 18.3158 10.8922 19.4386C10.9724 19.599 11.0526 19.7594 11.1729 19.8396C11.2932 19.9599 11.4536 20 11.6541 20C11.8546 20 12.015 19.9599 12.1353 19.8396C12.2556 19.7193 12.3759 19.599 12.416 19.4386C12.7769 18.3158 13.2582 17.3935 13.8196 16.6316C14.381 15.9098 14.9023 15.188 15.4236 14.5063C15.9449 13.8246 16.386 13.1429 16.7469 12.381C17.1078 11.6591 17.3083 10.7368 17.3083 9.65414C17.3484 8.09023 16.787 6.76692 15.6642 5.64411ZM11.6541 11.6992C10.5313 11.6992 9.64913 10.817 9.64913 9.69424C9.64913 8.57143 10.5313 7.68922 11.6541 7.68922C12.7769 7.68922 13.6592 8.57143 13.6592 9.69424C13.6592 10.7769 12.7769 11.6992 11.6541 11.6992Z" fill="#05141F"/>
</g>
</svg>
