<svg width="24" height="24" viewBox="0 0 24 24" fill="none" xmlns="http://www.w3.org/2000/svg">
<g id="10">
<path id="Vector" d="M20.2999 18.2L15.87 13.77C16.7 12.65 17.2 11.26 17.2 9.75C17.2 6.02 14.18 3 10.45 3C6.71995 3 3.69995 6.02 3.69995 9.75C3.69995 13.48 6.71995 16.5 10.45 16.5C11.96 16.5 13.35 16.01 14.47 15.17L20.2999 21V18.2ZM15.4 9.75C15.4 12.48 13.18 14.7 10.45 14.7C7.71995 14.7 5.49995 12.48 5.49995 9.75C5.49995 7.02 7.71995 4.8 10.45 4.8C13.18 4.8 15.4 7.02 15.4 9.75Z" fill="#05141F"/>
</g>
</svg>
