<svg width="36" height="36" viewBox="0 0 36 36" fill="none" xmlns="http://www.w3.org/2000/svg">
<g id="location_on 2">
<path id="Vector" d="M25.5 6.075C23.475 4.05 20.925 3 18 3C15.075 3 12.525 4.05 10.5 6.075C8.47499 8.1 7.42499 10.65 7.42499 13.575C7.42499 15.6 7.79999 17.325 8.47499 18.675C9.14999 20.025 9.97499 21.375 10.95 22.65C11.925 23.925 12.9 25.275 13.95 26.625C15 27.975 15.825 29.775 16.575 31.875C16.725 32.175 16.875 32.475 17.1 32.625C17.325 32.85 17.625 32.925 18 32.925C18.375 32.925 18.675 32.85 18.9 32.625C19.125 32.4 19.35 32.175 19.425 31.875C20.1 29.775 21 28.05 22.05 26.625C23.1 25.275 24.075 23.925 25.05 22.65C26.025 21.375 26.85 20.1 27.525 18.675C28.2 17.325 28.575 15.6 28.575 13.575C28.65 10.65 27.6 8.175 25.5 6.075ZM18 17.4C15.9 17.4 14.25 15.75 14.25 13.65C14.25 11.55 15.9 9.9 18 9.9C20.1 9.9 21.75 11.55 21.75 13.65C21.75 15.675 20.1 17.4 18 17.4Z" fill="#05141F"/>
</g>
</svg>
