<svg width="40" height="40" viewBox="0 0 40 40" fill="none" xmlns="http://www.w3.org/2000/svg">
<circle cx="20" cy="20" r="19.5" stroke="#05141F" stroke-opacity="0.2"/>
<mask id="mask0_5114_205824" style="mask-type:alpha" maskUnits="userSpaceOnUse" x="8" y="7" width="24" height="24">
<rect x="8" y="7" width="24" height="24" fill="#D9D9D9"/>
</mask>
<g mask="url(#mask0_5114_205824)">
</g>
<path d="M28.1602 17.5195H22.5702V19.2395H26.8702V26.3295H13.1202V19.2395H17.4202V17.5195H11.8402C11.6002 17.5195 11.4102 17.7095 11.4102 17.9495V27.6195C11.4102 27.8595 11.6002 28.0495 11.8402 28.0495H28.1602C28.4002 28.0495 28.5902 27.8595 28.5902 27.6195V17.9495C28.5902 17.7095 28.4002 17.5195 28.1602 17.5195Z" fill="#05141F"/>
<path d="M19.1397 23.21H20.8597V13L24.2997 16.55V14.12L20.3097 10.13C20.2297 10.05 20.1297 10 20.0097 10C19.8897 10 19.7797 10.05 19.7097 10.13L15.7197 14.12V16.55L19.1597 13V23.21H19.1397Z" fill="#05141F"/>
</svg>
