<?xml version="1.0" encoding="utf-8"?>
<!-- Generator: Adobe Illustrator 28.0.0, SVG Export Plug-In . SVG Version: 6.00 Build 0)  -->
<svg version="1.1" id="a" xmlns="http://www.w3.org/2000/svg" xmlns:xlink="http://www.w3.org/1999/xlink" x="0px" y="0px"
	 width="24px" height="24px" viewBox="0 0 24 24" style="enable-background:new 0 0 24 24;" xml:space="preserve">
<style type="text/css">
	.st0{fill:#FFFFFF;}
</style>
<path class="st0" d="M13.3,6.8V12h2.6l-5.2,5.1V12H8.1L13.3,6.8 M12,5.6l-5.2,5.1l-2.4,2.4c-0.2,0.2-0.1,0.7,0.3,0.7h4.2v6.7
	c0,0.4,0.4,0.5,0.7,0.3l2.4-2.4l5.2-5.1l2.4-2.4c0.2-0.2,0.1-0.7-0.3-0.7h-4.2V3.5c0-0.4-0.4-0.5-0.7-0.3C14.4,3.2,12,5.6,12,5.6z"
	/>
</svg>
