<svg width="24" height="24" viewBox="0 0 24 24" fill="none" xmlns="http://www.w3.org/2000/svg">
<g id="Form Elements/Checkbox&#38;Radio">
<mask id="mask0_6_1023" style="mask-type:alpha" maskUnits="userSpaceOnUse" x="0" y="0" width="24" height="24">
<rect id="Bounding box" width="24" height="24" fill="#D9D9D9"/>
</mask>
<g mask="url(#mask0_6_1023)">
<path id="radio_button_unchecked" d="M12.5 20C11.3242 20 10.2192 19.7769 9.185 19.3306C8.15083 18.8844 7.25125 18.2788 6.48625 17.5138C5.72125 16.7488 5.11563 15.8492 4.66938 14.815C4.22312 13.7808 4 12.6758 4 11.5C4 10.3242 4.22312 9.21917 4.66938 8.185C5.11563 7.15083 5.72125 6.25125 6.48625 5.48625C7.25125 4.72125 8.15083 4.11563 9.185 3.66938C10.2192 3.22312 11.3242 3 12.5 3C13.6758 3 14.7808 3.22312 15.815 3.66938C16.8492 4.11563 17.7488 4.72125 18.5138 5.48625C19.2788 6.25125 19.8844 7.15083 20.3306 8.185C20.7769 9.21917 21 10.3242 21 11.5C21 12.6758 20.7769 13.7808 20.3306 14.815C19.8844 15.8492 19.2788 16.7488 18.5138 17.5138C17.7488 18.2788 16.8492 18.8844 15.815 19.3306C14.7808 19.7769 13.6758 20 12.5 20ZM12.5 18.3C14.3983 18.3 16.0063 17.6413 17.3238 16.3238C18.6413 15.0063 19.3 13.3983 19.3 11.5C19.3 9.60167 18.6413 7.99375 17.3238 6.67625C16.0063 5.35875 14.3983 4.7 12.5 4.7C10.6017 4.7 8.99375 5.35875 7.67625 6.67625C6.35875 7.99375 5.7 9.60167 5.7 11.5C5.7 13.3983 6.35875 15.0063 7.67625 16.3238C8.99375 17.6413 10.6017 18.3 12.5 18.3Z" fill="#05141F"/>
</g>
</g>
</svg>
