<svg width="96" height="96" viewBox="0 0 96 96" fill="none" xmlns="http://www.w3.org/2000/svg">
<g id="icn/pictogram/6-3">
<path id="Vector" d="M63.28 26.2391L32.24 57.2791C31.92 57.5991 31.92 58.1191 32.24 58.4391L33.4 59.5991C33.72 59.9191 34.24 59.9191 34.56 59.5991L63.72 30.4391C64.04 30.1191 64.6 30.0791 65 30.3191L74.64 36.5991C75 36.8391 75.32 37.3991 75.28 37.8391C74.16 66.2791 54.52 74.9591 48.76 76.9191C48.32 77.0791 47.64 77.0791 47.2 76.9191C46.16 76.5591 44.64 75.9991 42.84 75.1191C42.44 74.9191 42.36 74.4791 42.68 74.1591L69.64 47.1991C69.96 46.8791 69.96 46.3591 69.64 46.0391L68.48 44.8791C68.16 44.5591 67.64 44.5591 67.32 44.8791L37.44 74.7591C37.12 75.0791 37.16 75.5191 37.56 75.7591C41.88 78.4791 45.6 79.8391 47.16 80.3191C47.6 80.4391 48.32 80.4391 48.72 80.3191C53.48 78.8791 78.12 69.7991 78.52 36.0791C78.52 35.6391 78.2 35.0791 77.84 34.8391L64.48 26.1191C64.12 25.8791 63.52 25.9191 63.2 26.2391H63.28Z" fill="#05141F" fill-opacity="0.8"/>
<path id="Vector_2" d="M21.3663 36.5611L47.3263 19.6811C47.6863 19.4411 48.3263 19.4411 48.6863 19.6811L58.0062 25.7611C58.3662 26.0011 58.9662 25.9611 59.2862 25.6411L60.4863 24.4411C60.8063 24.1211 60.7663 23.6811 60.3662 23.4011L48.6863 15.8011C48.3263 15.5611 47.6863 15.5611 47.3263 15.8011L18.0863 34.8411C17.7263 35.0811 17.4062 35.6411 17.4062 36.0811C17.6462 55.3611 25.7662 66.5211 33.6062 72.8811C33.9662 73.1611 34.4862 73.1211 34.8062 72.8011L35.9262 71.6811C36.2462 71.3611 36.2063 70.8811 35.8463 70.6011C28.8063 64.9611 21.3663 55.0411 20.6863 37.8411C20.6863 37.4011 20.9662 36.8411 21.3263 36.5611H21.3663Z" fill="#05141F" fill-opacity="0.8"/>
</g>
</svg>
