<svg width="96" height="96" viewBox="0 0 96 96" fill="none" xmlns="http://www.w3.org/2000/svg">
<g id="icn/pictogram/6-2">
<path id="Vector" d="M71.4375 28.5586C72.3975 30.8386 73.0375 33.2786 73.3175 35.8786C73.0375 33.3186 72.3975 30.8786 71.4375 28.5586Z" fill="#05141F" fill-opacity="0.8"/>
<path id="Vector_2" d="M71.4275 28.5598C69.8275 24.7598 67.3075 21.4398 64.1875 18.8398C67.3475 21.4398 69.8275 24.7598 71.4275 28.5598Z" fill="#05141F" fill-opacity="0.8"/>
<path id="Vector_3" d="M31.8025 18.8398C28.6425 21.4398 26.1625 24.7598 24.5625 28.5598C26.1625 24.7598 28.6825 21.4398 31.8025 18.8398Z" fill="#05141F" fill-opacity="0.8"/>
<path id="Vector_4" d="M22.6875 35.8395C22.9675 33.2795 23.6075 30.8395 24.5675 28.5195C23.6075 30.7995 22.9675 33.2395 22.6875 35.8395Z" fill="#05141F" fill-opacity="0.8"/>
<path id="Vector_5" d="M71.4425 28.5591C69.8425 24.7591 67.3225 21.4391 64.2025 18.8391C59.8025 15.1991 54.1625 13.0391 48.0025 13.0391C41.8425 13.0391 36.2025 15.2391 31.8025 18.8391C28.6425 21.4391 26.1625 24.7591 24.5625 28.5591C23.6025 30.8391 22.9625 33.2791 22.6825 35.8791C22.6025 36.7191 22.5625 37.5991 22.5625 38.4791C22.5625 45.3591 25.3225 51.5991 29.7625 56.1991C30.0825 56.5191 30.3625 57.1591 30.3625 57.6391V82.4391C30.3625 82.9191 30.6825 83.1191 31.1225 82.9191L46.5625 75.1991C46.9625 74.9991 47.6425 74.9991 48.0825 75.1991L63.5225 82.9191C63.9225 83.1191 64.2825 82.9191 64.2825 82.4391V62.5991C64.2825 62.1191 63.9625 61.9591 63.5625 62.1991L61.6025 63.5191C61.2025 63.7591 60.8825 64.3591 60.8825 64.8391V76.9591C60.8825 77.4391 60.5625 77.6391 60.1225 77.4391L48.8425 71.7991L48.0825 71.4391C47.6825 71.2391 47.0025 71.2391 46.5625 71.4391L45.8025 71.7991L34.5225 77.4391C34.1225 77.6391 33.7625 77.4391 33.7625 76.9591V55.9991C33.7625 55.5191 33.4825 54.9191 33.1225 54.5991C32.7625 54.2791 32.4025 53.9591 32.0425 53.5991C28.2825 49.6391 25.9625 44.3591 25.9625 38.4791C25.9625 26.3191 35.8425 16.4391 48.0025 16.4391C60.1625 16.4391 70.0425 26.3191 70.0425 38.4791C70.0425 44.3591 67.7225 49.6391 63.9625 53.5991C62.7625 54.8791 61.4025 56.0391 59.8825 56.9991C56.4425 59.1991 52.3625 60.5591 48.0025 60.5591C44.3225 60.5591 40.9225 59.5991 37.8825 57.9991C37.4825 57.7991 37.1225 57.9991 37.1225 58.4391V60.6391C37.1225 61.1191 37.4825 61.6391 37.8825 61.8391C40.9625 63.1991 44.3625 63.9591 47.9625 63.9591C51.5625 63.9591 55.0825 63.1991 58.2025 61.7991C59.1225 61.3991 60.0025 60.9191 60.8425 60.4391C62.0425 59.7191 63.1625 58.9591 64.2425 58.0791C64.6425 57.7191 65.0425 57.3591 65.4425 56.9991C70.3625 52.3591 73.4025 45.7991 73.4025 38.5191C73.4025 37.6391 73.3625 36.7591 73.2825 35.9191C73.0025 33.3591 72.3625 30.9191 71.4025 28.5991L71.4425 28.5591Z" fill="#05141F" fill-opacity="0.8"/>
<path id="Vector_6" d="M48.015 19.9219C37.695 19.9219 29.375 28.2819 29.375 38.5619C29.375 44.7219 32.415 50.1619 37.055 53.5619C39.495 55.3619 42.375 56.5219 45.495 56.9619C46.335 57.0819 47.175 57.2019 48.055 57.2019C48.935 57.2019 49.775 57.0419 50.615 56.9619C53.735 56.5219 56.615 55.3619 59.055 53.5619C63.695 50.1619 66.735 44.7219 66.735 38.5619C66.735 28.2419 58.375 19.9219 48.095 19.9219H48.015ZM50.535 53.6019C49.695 53.7619 48.855 53.8419 48.015 53.8419C47.175 53.8419 46.295 53.7219 45.495 53.6019C38.295 52.4019 32.775 46.1619 32.775 38.6019C32.775 30.2019 39.615 23.3219 48.055 23.3219C56.495 23.3219 63.335 30.1619 63.335 38.6019C63.335 46.1619 57.815 52.4019 50.615 53.6019H50.535Z" fill="#05141F" fill-opacity="0.8"/>
<path id="Vector_7" d="M45.52 40.0383L42.64 37.1583C42.32 36.8383 41.76 36.8383 41.44 37.1583L40.24 38.3583C39.92 38.6783 39.92 39.2383 40.24 39.5583L45.52 44.8383C45.84 45.1583 46.4 45.1583 46.72 44.8383L55.76 35.8783C56.08 35.5583 56.08 34.9983 55.76 34.6783L54.56 33.4783C54.24 33.1583 53.68 33.1583 53.36 33.4783L46.72 40.0383C46.4 40.3583 45.84 40.3583 45.52 40.0383Z" fill="#05141F" fill-opacity="0.8"/>
</g>
</svg>
