<svg width="96" height="96" viewBox="0 0 96 96" fill="none" xmlns="http://www.w3.org/2000/svg">
<g id="icn/pictogram/6-1">
<path id="Vector" d="M73.8662 66.4814V74.6014C73.8662 75.0414 73.5063 75.4014 73.0663 75.4014H67.9463C67.5063 75.4014 67.1463 75.0414 67.1463 74.6014V69.7614C67.1463 69.3214 66.7863 68.9614 66.3463 68.9614H52.5062C52.0262 67.6014 50.9862 66.5614 49.6262 66.0814V56.0814C49.6262 55.6414 49.9862 55.2814 50.4262 55.2814H51.2262C51.6662 55.2814 52.1863 54.9614 52.3863 54.5614L55.6663 48.0014C55.8663 47.6014 56.0263 46.9214 56.0263 46.4814V31.1214C56.0263 30.6814 55.6662 30.3214 55.2262 30.3214H53.6263C53.1863 30.3214 52.8262 30.6814 52.8262 31.1214V45.7214C52.8262 46.1614 52.6662 46.8414 52.4662 47.2414L50.3863 51.3614C50.1863 51.7614 49.6663 52.0814 49.2263 52.0814H46.7862C46.3462 52.0814 45.8263 51.7614 45.6262 51.3614L43.5463 47.2414C43.3463 46.8414 43.1863 46.1614 43.1863 45.7214V21.5214C43.1863 21.0814 43.5462 20.7214 43.9862 20.7214H51.9863C52.4263 20.7214 52.7862 21.0814 52.7862 21.5214V26.3214C52.7862 26.7614 53.1463 27.1214 53.5863 27.1214H63.1062C63.5462 27.1214 63.9062 27.4814 63.9062 27.9214V32.7614C63.9062 33.2014 64.2663 33.5614 64.7063 33.5614H76.2262C76.6662 33.5614 77.0263 33.2014 77.0263 32.7614V18.2414C77.0263 17.8014 76.6662 17.4414 76.2262 17.4414H64.7063C64.2663 17.4414 63.9062 17.8014 63.9062 18.2414V19.8414C63.9062 20.2814 64.2663 20.6414 64.7063 20.6414H73.0263C73.4663 20.6414 73.8262 21.0014 73.8262 21.4414V29.5614C73.8262 30.0014 73.4663 30.3614 73.0263 30.3614H67.9062C67.4663 30.3614 67.1063 30.0014 67.1063 29.5614V24.7214C67.1063 24.2814 66.7463 23.9214 66.3063 23.9214H56.7862C56.3462 23.9214 55.9863 23.5614 55.9863 23.1214V18.3214C55.9863 17.8814 55.6262 17.5214 55.1862 17.5214H40.7862C40.3462 17.5214 39.9862 17.8814 39.9862 18.3214V23.1214C39.9862 23.5614 39.6263 23.9214 39.1863 23.9214H32.8263C32.3863 23.9214 32.0263 23.5614 32.0263 23.1214V18.2414C32.0263 17.8014 31.6662 17.4414 31.2262 17.4414H19.7062C19.2662 17.4414 18.9062 17.8014 18.9062 18.2414V32.7614C18.9062 33.2014 19.2662 33.5614 19.7062 33.5614H31.2262C31.6662 33.5614 32.0263 33.2014 32.0263 32.7614V31.1614C32.0263 30.7214 31.6662 30.3614 31.2262 30.3614H22.9062C22.4662 30.3614 22.1063 30.0014 22.1063 29.5614V21.4414C22.1063 21.0014 22.4662 20.6414 22.9062 20.6414H28.0263C28.4663 20.6414 28.8263 21.0014 28.8263 21.4414V26.3214C28.8263 26.7614 29.1862 27.1214 29.6262 27.1214H39.1863C39.6263 27.1214 39.9862 27.4814 39.9862 27.9214V46.4814C39.9862 46.9214 40.1462 47.6014 40.3463 48.0014L43.6262 54.5614C43.8263 54.9614 44.3462 55.2814 44.7862 55.2814H45.5862C46.0262 55.2814 46.3863 55.6414 46.3863 56.0814V66.0814C45.0263 66.5614 43.9862 67.6014 43.5063 68.9614H32.8663C32.4263 68.9614 32.0663 68.6014 32.0663 68.1614V63.2814C32.0663 62.8414 31.7063 62.4814 31.2663 62.4814H19.7463C19.3063 62.4814 18.9462 62.8414 18.9462 63.2814V77.8014C18.9462 78.2414 19.3063 78.6014 19.7463 78.6014H31.2663C31.7063 78.6014 32.0663 78.2414 32.0663 77.8014V76.2014C32.0663 75.7614 31.7063 75.4014 31.2663 75.4014H22.9462C22.5062 75.4014 22.1462 75.0414 22.1462 74.6014V66.4814C22.1462 66.0414 22.5062 65.6814 22.9462 65.6814H28.0662C28.5062 65.6814 28.8662 66.0414 28.8662 66.4814V71.3614C28.8662 71.8014 29.2263 72.1614 29.6663 72.1614H43.5463C44.2263 74.0014 45.9463 75.3614 48.0263 75.3614C50.1063 75.3614 51.8262 74.0014 52.5062 72.1614H63.1462C63.5862 72.1614 63.9463 72.5214 63.9463 72.9614V77.8014C63.9463 78.2414 64.3063 78.6014 64.7463 78.6014H76.2663C76.7062 78.6014 77.0663 78.2414 77.0663 77.8014V63.2814C77.0663 62.8414 76.7062 62.4814 76.2663 62.4814H64.7463C64.3063 62.4814 63.9463 62.8414 63.9463 63.2814V64.8814C63.9463 65.3214 64.3063 65.6814 64.7463 65.6814H73.0663C73.5063 65.6814 73.8662 66.0414 73.8662 66.4814ZM48.0263 72.1214C47.1463 72.1214 46.4262 71.4014 46.4262 70.5214C46.4262 69.6414 47.1463 68.9214 48.0263 68.9214C48.9062 68.9214 49.6262 69.6414 49.6262 70.5214C49.6262 71.4014 48.9062 72.1214 48.0263 72.1214Z" fill="#05141F" fill-opacity="0.8"/>
</g>
</svg>
